<svg width="32" height="32" viewBox="0 0 32 32" fill="none" xmlns="http://www.w3.org/2000/svg">
<path fill-rule="evenodd" clip-rule="evenodd" d="M25.7213 7.03573C25.8098 7.06253 25.8833 7.10327 26.0409 7.26087L27.9629 9.18283C28.1205 9.34043 28.1612 9.41398 28.188 9.50241C28.2148 9.59084 28.2148 9.68128 28.188 9.76971C28.1612 9.85814 28.1205 9.9317 27.9629 10.0893L13.313 24.7392C13.1554 24.8968 13.0819 24.9375 12.9934 24.9643C12.905 24.9911 12.8146 24.9911 12.7261 24.9643C12.6377 24.9375 12.5641 24.8968 12.4065 24.7392L10.4846 22.8172C10.4493 22.7819 10.4198 22.7508 10.3951 22.7228L4.82923 17.157C4.67163 16.9994 4.63089 16.9259 4.60409 16.8374C4.57728 16.749 4.57728 16.6586 4.60409 16.5701C4.63089 16.4817 4.67163 16.4081 4.82923 16.2506L6.75119 14.3286C6.90879 14.171 6.98234 14.1303 7.07077 14.1035C7.1592 14.0766 7.24964 14.0766 7.33807 14.1035C7.4265 14.1303 7.50006 14.171 7.65766 14.3286L12.8623 19.533L25.1345 7.26087C25.2921 7.10327 25.3656 7.06253 25.4541 7.03573C25.5425 7.00892 25.6329 7.00892 25.7213 7.03573Z" fill="currentColor"/>
</svg>
